# xmcd CD database file
#
# Track frame offsets:
#	150
#	22431
#	57807
#	74454
#	91214
#	123119
#	155183
#	181986
#	207641
#	240016
#	264021
#
# Disc length: 3729 seconds
#
# Revision: 0
# Processed by: cddbd v1.5.2PL0 Copyright (c) Steve Scherf et al.
# Submitted via: CDex 1.51
#
DISCID=930e8f0b
DTITLE=Stefano Bollani Trio  - I'm In The Mood For Love (2007)Venus Records
DYEAR=2007
DGENRE=Jazz
TTITLE0=Stefano Bollani Trio - Makin' Whoopee
TTITLE1=Stefano Bollani Trio - Cheek To Cheek
TTITLE2=Stefano Bollani Trio - I'm In The Mood For Love
TTITLE3=Stefano Bollani Trio - Puttin' On The Ritz
TTITLE4=Stefano Bollani Trio - How Long Has This Been Going O
TTITLE5=Stefano Bollani Trio - Margie
TTITLE6=Stefano Bollani Trio - Moonlight Serenade
TTITLE7=Stefano Bollani Trio - It's Only A Paper Moon
TTITLE8=Stefano Bollani Trio - A Kiss To Build A Dream On
TTITLE9=Stefano Bollani Trio - Honeysuckle Rose
TTITLE10=Stefano Bollani Trio - But Not For Me
EXTD=YEAR: 2007
EXTT0=
EXTT1=
EXTT2=
EXTT3=
EXTT4=
EXTT5=
EXTT6=
EXTT7=
EXTT8=
EXTT9=
EXTT10=
PLAYORDER=
